<?xml version="1.0" encoding="utf-8"?>
<!-- Generator: Adobe Illustrator 16.0.4, SVG Export Plug-In . SVG Version: 6.00 Build 0)  -->
<!DOCTYPE svg PUBLIC "-//W3C//DTD SVG 1.1//EN" "http://www.w3.org/Graphics/SVG/1.1/DTD/svg11.dtd">
<svg version="1.1" xmlns="http://www.w3.org/2000/svg" xmlns:xlink="http://www.w3.org/1999/xlink" x="0px" y="0px"
	 width="998.881px" height="256px" viewBox="0 0 998.881 256" enable-background="new 0 0 998.881 256" xml:space="preserve">
<g id="Logo">
	<g>
		
			<ellipse transform="matrix(0.5618 -0.8273 0.8273 0.5618 -45.2743 138.1788)" fill="#E6E6E6" cx="107.796" cy="111.826" rx="81.089" ry="51.57"/>
		<path fill="#CCCCCC" d="M191.709,82.227c-4.906-8.517-9.776-16.21-17.501-22.208c-8.361-6.491-18.708-7.046-28.5-4.619
			c-18.291,4.534-35.346,17.707-47.976,32.009c-12.645,14.318-21.833,32.005-26.554,50.944
			c-5.145,20.645-4.553,44.807,10.969,60.383c2.698,2.705,5.935,5.05,9.438,6.689c-0.159,0.854,0.227,1.851,1.24,1.736
			c0.739-0.083,1.465-0.223,2.18-0.407c3.447,1.088,7.052,1.449,10.595,0.771c1.822-0.354,1.786-3.468,0-3.846
			c-0.924-0.197-1.83-0.421-2.726-0.658c2.3-1.503,4.508-3.199,6.678-4.724c5.852-4.123,11.447-8.643,16.866-13.381
			c11.087-9.695,21.214-20.702,30.132-32.643c8.822-11.815,16.452-24.579,22.827-38.036c3.82-8.061,9.396-19.593,9.177-29.809
			c0.059,0.077,0.117,0.157,0.174,0.233C190.083,86.479,192.812,84.139,191.709,82.227z"/>
		<path fill="#B3B3B3" d="M178.165,86.325c-1.645-5.067-6.512-7.811-11.668-8.716c-7.174-1.26-14.262,1.803-20.359,5.271
			c-12.165,6.915-22.21,17.081-30.541,28.204c-8.42,11.24-14.844,23.892-20.105,36.876c-2.996,7.396-5.22,15.173-5.035,23.21
			c0.102,4.42,1.111,10.158,3.872,14.185c0.986,2.755,3.583,5.161,6.227,6.179c7.209,2.78,14.47-1.342,20.448-5.145
			c12.169-7.741,23.041-17.444,32.327-28.464c9.299-11.034,16.883-23.463,22.538-36.732c2.867-6.725,5.575-13.715,6.149-21.061
			C182.384,95.436,181.197,90.073,178.165,86.325z"/>
		<path fill="#FFFFFF" d="M173.537,41.018c-7.65-7.593-18.055-11.717-28.804-13.197c-11.562-3.242-24.382-0.73-35.6,3.529
			c-1.987,0.635-3.864,1.336-5.529,1.982c-8.321,3.228-15.98,8.103-23.043,13.508c-6.554,5.016-12.55,10.721-17.83,17.062
			c-2.592,3.112-5.369,6.53-7.735,10.167c-3.751,5.043-7.104,10.378-9.942,15.992c-4.285,8.475-7.948,18.494-8.778,28.432
			c-2.535,6.415-2.917,13.836-2.646,20.58c0.339,8.5,2.295,16.921,5.527,24.773c1.722,4.182,3.916,8.471,6.532,12.567
			c4.008,8.542,10.666,15.856,18.801,20.976c14.976,9.429,33.486,9.682,49.355,2.479c8.271-3.752,15.547-9.499,22.491-15.265
			c7.102-5.893,14.133-11.926,20.818-18.291c6.542-6.227,12.549-13.018,17.533-20.563c3.492-5.281,6.239-11.022,8.497-16.946
			c2.691-4.207,4.382-9.268,5.69-13.821c0.979-3.396,1.602-6.859,2.038-10.36c0.189-1.522,0.443-3.291,0.468-5.037
			c0.219-1.879,0.326-3.757,0.396-5.517c0.067-0.905,0.101-1.807,0.091-2.709C192.389,73.558,186.357,53.741,173.537,41.018z
			 M156.77,118.355c-5.503,12.803-13.646,24.307-23.44,34.179c-4.939,4.977-10.386,9.418-16.18,13.362
			c-0.066,0.044-0.136,0.086-0.201,0.133c-12.023,7.17-25.749,11.673-39.683,7.944c-8.441-2.255-15.056-7.828-18.954-15.586
			c-3.89-7.732-4.466-16.915-4.397-25.413c0.044-5.47,0.538-10.917,1.427-16.301c3.806-14.933,9.741-29.287,20.041-40.997
			c11.589-13.175,27.581-22.009,44.716-25.464c5.72-1.154,11.754-1.518,17.653-0.958c1.616,0.565,3.211,1.206,4.763,1.917
			c3.555,1.631,6.829,3.829,9.823,6.334c3.725,3.81,6.684,8.429,8.67,13.796C166.672,86.615,163.01,103.835,156.77,118.355z"/>
		<g>
			<path fill="#A4573E" d="M242.669,132.332c-1.628-34.239-23.282-66.001-50.146-86.011c-6.08-4.529-12.584-8.462-19.372-11.831
				c-6.603-3.277-13.884-6.548-21.242-7.471c-0.264-0.033-0.487,0.031-0.671,0.153c3.985,1.697,7.99,3.371,11.695,5.577
				c2.049,1.22,4.495,2.879,6.592,4.874c1.356,0.649,2.703,1.319,4.03,2.042c0.332,0.182,0.66,0.372,0.99,0.556
				c-0.011,0.078-0.018,0.159-0.005,0.245c0.434,2.617,3.449,4.728,5.137,6.637c2.324,2.633,4.26,5.59,5.994,8.634
				c3.574,6.269,5.784,13.29,6.996,20.376c1.347,7.877,1.026,16.101-0.173,23.973c-1.084,7.109-3.878,13.944-5.034,21.014
				c-2.808,4.668-5.191,9.688-8.134,14.237c-3.935,6.083-7.735,12.193-12.06,18.018c-4.411,5.94-9.214,11.594-14.27,16.992
				c-2.47,2.639-4.969,5.257-7.521,7.812c-1.065,1.067-2.214,2.12-3.333,3.208c-0.07,0.01-0.143,0.024-0.218,0.054
				c-5.424,2.159-10.304,5.681-15.375,8.539c-5.547,3.129-11.33,5.861-17.293,8.096c-6.154,2.307-12.614,3.885-19.149,4.584
				c-5.719,0.612-11.243,0.024-16.891-0.481c-1.345-0.878-2.68-1.768-3.996-2.683c-1.598-0.671-3.156-1.477-4.647-2.34
				c-5.224-3.029-10.055-6.892-13.832-11.631c-3.852-4.832-6.573-10.305-9.876-15.501c-0.018-0.027-0.037-0.057-0.054-0.085
				c0.617,1.629,1.287,3.234,2.059,4.798c1.695,3.442,3.124,7.007,4.505,10.591c5.104,6.403,11.21,12.062,17.477,16.823
				c15.099,11.463,33.055,19.695,51.228,24.919c17.741,5.097,36.704,6.002,54.685,1.623c11.408-2.779,23.944-7.947,33.303-15.995
				C230.283,196.162,244.107,162.515,242.669,132.332z"/>
			<path fill="#94523A" d="M242.669,132.332c-0.085-1.793-0.237-3.574-0.431-5.35c-1.898,10.221-4.602,20.205-9.844,29.52
				c-4.158,7.385-9.837,13.921-16.886,18.663c-7.512,5.056-17.646,7.269-22.739-1.975c-4.598-8.356-0.299-18.464,2.999-26.43
				c3.823-9.231,7.234-18.587,9.74-28.271c4.616-17.821,5.74-36.835,0.586-54.661c-0.871-3.017-1.937-6.003-3.18-8.927
				c-3.35-3.052-6.822-5.924-10.392-8.582c-6.08-4.529-12.584-8.462-19.372-11.831c-6.603-3.277-13.884-6.548-21.242-7.471
				c-0.264-0.033-0.487,0.031-0.671,0.153c3.985,1.697,7.99,3.371,11.695,5.577c2.049,1.22,4.495,2.879,6.592,4.874
				c1.356,0.649,2.703,1.319,4.03,2.042c0.332,0.182,0.66,0.372,0.99,0.556c-0.011,0.078-0.018,0.159-0.005,0.245
				c0.434,2.617,3.449,4.728,5.137,6.637c2.324,2.633,4.26,5.59,5.994,8.634c3.574,6.269,5.784,13.29,6.996,20.376
				c1.347,7.877,1.026,16.101-0.173,23.973c-1.084,7.109-3.878,13.944-5.034,21.014c-2.808,4.668-5.191,9.688-8.134,14.237
				c-3.935,6.083-7.735,12.193-12.06,18.018c-4.411,5.94-9.214,11.594-14.27,16.992c-2.47,2.639-4.969,5.257-7.521,7.812
				c-1.065,1.067-2.214,2.12-3.333,3.208c-0.07,0.01-0.143,0.024-0.218,0.054c-5.424,2.159-10.304,5.681-15.375,8.539
				c-5.547,3.129-11.33,5.861-17.293,8.096c-6.154,2.307-12.614,3.885-19.149,4.584c-5.719,0.612-11.243,0.024-16.891-0.481
				c-1.345-0.878-2.68-1.768-3.996-2.683c-1.598-0.671-3.156-1.477-4.647-2.34c-5.224-3.029-10.055-6.892-13.832-11.631
				c-3.852-4.832-6.573-10.305-9.876-15.501c-0.018-0.027-0.037-0.057-0.054-0.085c0.617,1.629,1.287,3.234,2.059,4.798
				c1.695,3.442,3.124,7.007,4.505,10.591c5.104,6.403,11.21,12.062,17.477,16.823c15.099,11.463,33.055,19.695,51.228,24.919
				c17.741,5.097,36.704,6.002,54.685,1.623c11.408-2.779,23.944-7.947,33.303-15.995
				C230.283,196.162,244.107,162.515,242.669,132.332z"/>
			<path fill="#824C37" d="M204.07,212.678c2.189-1.383,4.288-2.894,6.305-4.501c-13.63,3.924-28.195,4.37-41.988,0.957
				c-8.327-2.06-16.527-6.598-13.775-16.475c1.17-4.2,3.914-7.993,6.403-11.504c2.879-4.067,5.752-8.141,8.539-12.272
				c10.605-15.717,19.988-32.433,25.34-50.714c5.833-19.937,5.913-42.363-2.707-61.505c-3.042-6.757-7.575-13.372-13.126-19.049
				c-1.944-1.089-3.912-2.134-5.908-3.125c-6.603-3.277-13.884-6.548-21.242-7.471c-0.264-0.033-0.487,0.031-0.671,0.153
				c3.985,1.697,7.99,3.371,11.695,5.577c2.049,1.22,4.495,2.879,6.592,4.874c1.356,0.649,2.703,1.319,4.03,2.042
				c0.332,0.182,0.66,0.372,0.99,0.556c-0.011,0.078-0.018,0.159-0.005,0.245c0.434,2.617,3.449,4.728,5.137,6.637
				c2.324,2.633,4.26,5.59,5.994,8.634c3.574,6.269,5.784,13.29,6.996,20.376c1.347,7.877,1.026,16.101-0.173,23.973
				c-1.084,7.109-3.878,13.944-5.034,21.014c-2.808,4.668-5.191,9.688-8.134,14.237c-3.935,6.083-7.735,12.193-12.06,18.018
				c-4.411,5.94-9.214,11.594-14.27,16.992c-2.47,2.639-4.969,5.257-7.521,7.812c-1.065,1.067-2.214,2.12-3.333,3.208
				c-0.07,0.01-0.143,0.024-0.218,0.054c-5.424,2.159-10.304,5.681-15.375,8.539c-5.547,3.129-11.33,5.861-17.293,8.096
				c-6.154,2.307-12.614,3.885-19.149,4.584c-5.719,0.612-11.243,0.024-16.891-0.481c-1.345-0.878-2.68-1.768-3.996-2.683
				c-1.598-0.671-3.156-1.477-4.647-2.34c-5.224-3.029-10.055-6.892-13.832-11.631c-3.852-4.832-6.573-10.305-9.876-15.501
				c-0.018-0.027-0.037-0.057-0.054-0.085c0.617,1.629,1.287,3.234,2.059,4.798c1.695,3.442,3.124,7.007,4.505,10.591
				c5.104,6.403,11.21,12.062,17.477,16.823c15.099,11.463,33.055,19.695,51.228,24.919c17.741,5.097,36.704,6.002,54.685,1.623
				C182.175,225.894,194.711,220.726,204.07,212.678z"/>
			<g>
				<path fill="#734634" d="M213.815,179.675c-5.37-4.252-11.621-7.572-17.45-11.153c-6.585-4.043-13.154-7.973-20.029-11.503
					c-0.163-0.085-0.284,0.134-0.14,0.241c5.887,4.339,11.958,8.282,18.156,12.16c6.099,3.818,12.163,8.201,18.68,11.27
					C213.646,180.979,214.426,180.16,213.815,179.675z"/>
				<path fill="#734634" d="M178.137,141.337c7.42-11.247,13.007-23.635,15.444-36.929c2.289-12.478,1.868-25.292-1.741-37.471
					c-2.002-6.758-5.234-14.403-9.811-20.649c-1.405-1.99-2.962-3.854-4.676-5.541c-11.627-11.445-27.565-17.157-43.783-16.974
					c-18.799,0.213-36.876,7.734-51.883,18.774c-11.602,8.535-21.72,19.154-29.611,31.221
					c-8.067,11.947-13.938,25.391-17.311,39.392c-4.364,18.116-4.296,37.695,2.791,55.106c1.626,3.999,3.642,7.807,5.992,11.372
					c4.136,7.096,10.058,13.302,15.688,19.072c7.577,7.769,16.883,13.669,26.346,18.841c20.902,11.42,46.349,17.33,69.96,12.821
					c0.654-0.125,0.493-1.159-0.155-1.146c-23.792,0.468-47.205-2.711-68.505-13.9c-8.225-4.318-15.527-10.065-22.528-16.121
					c0.762,0.428,1.534,0.839,2.318,1.233c1.672,0.917,3.442,1.681,5.279,2.304c1.769,0.638,3.595,1.145,5.452,1.539
					c0.019,0.046,0.043,0.093,0.078,0.133c4.063,5.089,11.748,7.638,17.571,10.059c6.635,2.751,14.157,5.704,21.43,5.808
					c0.551,0.008,0.796-0.799,0.287-1.062c-5.867-3.031-12.514-4.73-18.661-7.132c-3.48-1.358-6.857-2.938-10.254-4.483
					c-1.791-0.815-3.61-1.772-5.479-2.554c5.234,0.514,10.599,0.152,15.689-1.036c1.859-0.344,3.657-0.762,5.363-1.247
					c0.312-0.087,0.62-0.193,0.932-0.285c2.165,2.207,5.564,3.296,8.427,4.3c3.581,1.257,7.921,2.719,11.758,2.22
					c0.692-0.091,1.203-1.098,0.402-1.488c-3.176-1.545-6.925-2.033-10.308-3.038c-2.585-0.768-5.231-2.088-7.911-2.734
					c5.172-1.731,10.208-4.033,15.084-6.703c0.018,0.026,0.032,0.052,0.055,0.074c1.082,1.077,2.648,1.458,4.064,1.941
					c1.835,0.625,3.616,1.162,5.562,1.267c0.637,0.031,0.786-0.824,0.308-1.136c-1.447-0.94-2.983-1.534-4.625-2.043
					c-1.219-0.38-2.464-0.879-3.734-1.007c9.177-5.22,17.764-11.717,25.58-18.252c6.654-5.568,12.754-11.743,18.242-18.458
					c3.595-4.401,6.771-9.278,9.668-14.278C177.335,142.544,177.738,141.943,178.137,141.337z M148.959,171.23
					c-12.51,11.347-27.271,21.388-43.224,27.128c-7.484,2.69-15.89,4.24-23.854,3.729c-1.407-0.09-2.78-0.269-4.125-0.511
					c-8.56-2.471-16.552-7.124-23-13.361c-13.42-12.98-19.25-31.994-19.476-50.244c-0.124-9.808,1.25-19.39,3.853-28.599
					c3.743-11.82,9.064-23.25,15.862-33.663c6.967-10.302,15.443-19.637,24.89-27.666c7.481-5.967,15.784-10.944,24.872-14.631
					c16.914-6.86,36.701-8.854,53.867-1.509c2.879,1.232,5.643,2.725,8.272,4.423c2.193,1.506,4.304,3.145,6.313,4.965
					c1.609,1.458,3.065,3.014,4.424,4.635c1.335,1.921,2.633,3.869,3.798,5.925c2.855,5.035,4.894,10.619,6.417,16.185
					c1.858,6.798,2.678,13.841,2.617,20.883c-0.222,2.165-0.269,4.353-0.428,6.542c-0.317,4.351-1.075,8.633-2.022,12.885
					c-1.847,8.31-4.7,16.299-8.321,23.999C172.688,147.244,161.102,160.219,148.959,171.23z"/>
				<path fill="#734634" d="M229.336,175.823c-3.216-8.195-9.224-15.671-15.028-22.196c-6.437-7.238-13.788-13.176-22.018-18.253
					c-0.329-0.201-0.585,0.283-0.295,0.503c7.212,5.491,13.944,11.83,20.007,18.563c6.149,6.826,10.644,14.561,15.992,21.949
					C228.447,177.013,229.663,176.654,229.336,175.823z"/>
				<path fill="#734634" d="M234.405,122.674c-2.465-6.311-5.546-12.36-9.216-18.055c-3.665-5.684-8.071-10.99-12.965-15.657
					c-4.498-4.29-9.869-9.035-15.804-11.151c-0.547-0.195-0.903,0.55-0.54,0.931c4.303,4.519,9.574,8.13,13.997,12.568
					c4.604,4.622,8.738,9.62,12.463,14.975c3.717,5.346,6.916,11.107,9.423,17.12c2.439,5.855,3.758,12.047,5.96,17.964
					c0.246,0.669,1.302,0.608,1.292-0.176C238.932,134.91,236.671,128.463,234.405,122.674z"/>
			</g>
		</g>
	</g>
</g>
<g id="Text">
	<text transform="matrix(1 0 0 1 251.999 178.7051)"><tspan x="0" y="0" fill="#734634" font-family="'SauceCodePowerline-Semibold'" font-size="96" letter-spacing="4">coconut</tspan><tspan x="436.127" y="0" font-family="'SauceCodePowerline-Semibold'" font-size="96" letter-spacing="4">milk</tspan></text>
	<g id="图层_3">
		<line fill="#333333" stroke="#000000" stroke-width="4" stroke-miterlimit="10" x1="821" y1="104" x2="821" y2="207"/>
		<line fill="#333333" stroke="#000000" stroke-width="4" stroke-miterlimit="10" x1="759" y1="75" x2="759" y2="179"/>
		<line fill="#333333" stroke="#000000" stroke-width="4" stroke-miterlimit="10" x1="862" y1="79" x2="862" y2="182"/>
		
			<line fill="#333333" stroke="#000000" stroke-width="4" stroke-miterlimit="10" x1="757.678" y1="178.568" x2="820.398" y2="205.964"/>
		
			<line fill="#333333" stroke="#000000" stroke-width="4" stroke-miterlimit="10" x1="819.362" y1="205.964" x2="862.616" y2="180.731"/>
		
			<line fill="#333333" stroke="#000000" stroke-width="4" stroke-miterlimit="10" x1="820.398" y1="103.188" x2="863.652" y2="77.957"/>
		
			<line fill="#333333" stroke="#000000" stroke-width="4" stroke-miterlimit="10" x1="757.678" y1="75.794" x2="820.398" y2="103.188"/>
		
			<line fill="#333333" stroke="#000000" stroke-width="4" stroke-miterlimit="10" x1="790.589" y1="60.02" x2="829.049" y2="37.585"/>
		
			<line fill="#333333" stroke="#000000" stroke-width="4" stroke-miterlimit="10" x1="789.869" y1="51.999" x2="828.328" y2="29.565"/>
		
			<line fill="#333333" stroke="#000000" stroke-width="4" stroke-miterlimit="10" x1="790.589" y1="61.056" x2="820.398" y2="104.225"/>
		
			<line fill="#333333" stroke="#000000" stroke-width="4" stroke-miterlimit="10" x1="757.678" y1="76.83" x2="790.589" y2="61.056"/>
		
			<line fill="#333333" stroke="#000000" stroke-width="4" stroke-miterlimit="10" x1="828.013" y1="38.622" x2="862.616" y2="78.993"/>
		<line fill="#333333" stroke="#000000" stroke-width="4" stroke-miterlimit="10" x1="791" y1="50" x2="791" y2="61"/>
		<line fill="#333333" stroke="#000000" stroke-width="4" stroke-miterlimit="10" x1="827" y1="30" x2="827" y2="40"/>
	</g>
</g>
</svg>
